<svg t="1626069062743" class="icon" viewBox="0 0 1024 1024" version="1.1" xmlns="http://www.w3.org/2000/svg" p-id="3561" width="200" height="200"><path d="M682.666667 469.333333c70.826667 0 127.573333-57.173333 127.573333-128S753.493333 213.333333 682.666667 213.333333c-70.826667 0-128 57.173333-128 128s57.173333 128 128 128z m-341.333334 0c70.826667 0 127.573333-57.173333 127.573334-128S412.16 213.333333 341.333333 213.333333C270.506667 213.333333 213.333333 270.506667 213.333333 341.333333s57.173333 128 128 128z m0 85.333334c-99.413333 0-298.666667 49.92-298.666666 149.333333V810.666667h597.333333v-106.666667c0-99.413333-199.253333-149.333333-298.666667-149.333333z m341.333334 0c-12.373333 0-26.453333 0.853333-41.386667 2.133333 49.493333 35.84 84.053333 84.053333 84.053333 147.2V810.666667h256v-106.666667c0-99.413333-199.253333-149.333333-298.666666-149.333333z" fill="#757575" p-id="3562"></path></svg>